<svg width="11" height="10" viewBox="0 0 11 10" fill="none" xmlns="http://www.w3.org/2000/svg">
<g id="bi:arrow-up">
<path id="Vector" d="M5.11502 1.9333L3.3195 3.7294L3.31949 3.72941C3.24205 3.80684 3.13703 3.85034 3.02752 3.85034C2.91802 3.85034 2.813 3.80684 2.73556 3.72941C2.65813 3.65198 2.61463 3.54695 2.61463 3.43745C2.61463 3.38323 2.62531 3.32953 2.64606 3.27944C2.66681 3.22935 2.69722 3.18383 2.73556 3.14549L2.80612 3.21605L2.73556 3.14549L5.23547 0.645577C5.2355 0.645557 5.23552 0.645536 5.23554 0.645516L5.11502 1.9333ZM5.11502 1.9333V9.06245C5.11502 9.17185 5.15848 9.27677 5.23584 9.35413C5.3132 9.43149 5.41812 9.47495 5.52752 9.47495C5.63693 9.47495 5.74185 9.43149 5.81921 9.35413C5.89657 9.27677 5.94002 9.17185 5.94002 9.06245V1.9333L7.73555 3.7294L7.73556 3.72941C7.813 3.80684 7.91802 3.85034 8.02752 3.85034C8.13703 3.85034 8.24205 3.80684 8.31949 3.72941C8.39692 3.65198 8.44042 3.54695 8.44042 3.43745C8.44042 3.32794 8.39692 3.22292 8.31949 3.14549L5.81957 0.645577C5.81955 0.645557 5.81953 0.645537 5.81951 0.645517L5.11502 1.9333Z" fill="black" stroke="black" stroke-width="0.2"/>
</g>
</svg>
