<svg xmlns="http://www.w3.org/2000/svg" width="11" height="10" viewBox="0 0 11 10" fill="none">
  <path d="M4.79981 1.9333L3.00428 3.7294L3.00427 3.72941C2.92684 3.80684 2.82182 3.85034 2.71231 3.85034C2.6028 3.85034 2.49778 3.80684 2.42035 3.72941C2.34292 3.65198 2.29941 3.54695 2.29941 3.43745C2.29941 3.38323 2.31009 3.32953 2.33084 3.27944C2.35159 3.22935 2.38201 3.18383 2.42035 3.14549L2.49091 3.21605L2.42035 3.14549L4.92026 0.645577C4.92028 0.645557 4.9203 0.645536 4.92032 0.645516L4.79981 1.9333ZM4.79981 1.9333V9.06245C4.79981 9.17185 4.84327 9.27677 4.92063 9.35413C4.99799 9.43149 5.10291 9.47495 5.21231 9.47495C5.32171 9.47495 5.42663 9.43149 5.50399 9.35413C5.58135 9.27677 5.62481 9.17185 5.62481 9.06245V1.9333L7.42034 3.7294L7.42035 3.72941C7.49778 3.80684 7.6028 3.85034 7.71231 3.85034C7.82182 3.85034 7.92684 3.80684 8.00427 3.72941C8.0817 3.65198 8.1252 3.54695 8.1252 3.43745C8.1252 3.32794 8.0817 3.22292 8.00427 3.14549L5.50436 0.645577C5.50434 0.645557 5.50432 0.645537 5.5043 0.645517L4.79981 1.9333Z" fill="#3D37F1" stroke="#3D37F1" stroke-width="0.2"/>
</svg>