<svg width="11" height="10" viewBox="0 0 11 10" fill="none" xmlns="http://www.w3.org/2000/svg">
<g id="bi:arrow-up">
<path id="Vector" d="M4.80542 8.0667L3.0099 6.2706L3.00988 6.27059C2.93245 6.19316 2.82743 6.14966 2.71792 6.14966C2.60842 6.14966 2.5034 6.19316 2.42596 6.27059C2.34853 6.34802 2.30503 6.45305 2.30503 6.56255C2.30503 6.61677 2.31571 6.67047 2.33646 6.72056C2.35721 6.77065 2.38762 6.81617 2.42596 6.85451L2.49652 6.78395L2.42596 6.85451L4.92587 9.35442C4.92589 9.35444 4.92591 9.35446 4.92594 9.35448L4.80542 8.0667ZM4.80542 8.0667V0.937551C4.80542 0.82815 4.84888 0.723228 4.92624 0.645869C5.0036 0.568511 5.10852 0.525051 5.21792 0.525051C5.32733 0.525051 5.43225 0.568511 5.50961 0.645869C5.58696 0.723228 5.63042 0.82815 5.63042 0.937551V8.0667L7.42595 6.2706L7.42596 6.27059C7.5034 6.19316 7.60842 6.14966 7.71792 6.14966C7.82743 6.14966 7.93245 6.19316 8.00988 6.27059C8.08732 6.34802 8.13082 6.45305 8.13082 6.56255C8.13082 6.67206 8.08732 6.77708 8.00988 6.85451L5.50997 9.35442C5.50995 9.35444 5.50993 9.35446 5.50991 9.35448L4.80542 8.0667Z" fill="#FF0000" stroke="#FF0000" stroke-width="0.2"/>
</g>
</svg>
